# xmcd
#
# Track frame offsets: 
#        150
#        15070
#        29385
#        40915
#        55685
#        69800
#        79965
#        99052
#        114182
#        124695
#        135595
#        147325
#        158817
#        169384
#        182457
#
# Disc length: 2609 seconds
#
# Revision: 5
# Processed by: cddbd v1.5.2PL0 Copyright (c) Steve Scherf et al.
# Submitted via: ExactAudioCopy v0.99pb5
#
DISCID=af0a2f0f
DTITLE=Various Artist - Classic Country Vol. 5 1975-1979 Disc 1
DYEAR=1998
DGENRE=Country
TTITLE0=Waylon Jennings - Luckenbach Texas (Back To The Basics Of Love
TTITLE0=)
TTITLE1=Bellamy Brothers - If I Said You Had A Beautiful Body Would Yo
TTITLE1=u Hold It Against Me
TTITLE2=Crystal Gayle - Don't It Make My Brown Eyes Blue
TTITLE3=Glen Campbell - Rhinestone Cowboy
TTITLE4=Merle Haggard And The Strangers - Always Wanting You
TTITLE5=Statler Brothers - Do You Know You Are My Sunshine
TTITLE6=Marty Robbins - El Paso City
TTITLE7=B.J. Thomas - (Hey Won't You Play) Another Somebody Done Someb
TTITLE7=ody Wrong Song
TTITLE8=Barbara Mandrell - Sleeping Single In A Double Bed
TTITLE9=Kendalls - Heaven's Just A Sin Away
TTITLE10=Freddy Fender - Before The Next Teardrop Falls
TTITLE11=Waylon Jennings And Willie Nelson - Mammas Don't Let Your Bab
TTITLE11=ies Grow Up To Be Cowboys
TTITLE12=Willie Nelson - Blue Eyes Crying In The Rain
TTITLE13=Conway Twitty - Happy Birthday Darlin'
TTITLE14=Dolly Parton - Here You Come Again
EXTD=
EXTT0=
EXTT1=
EXTT2=
EXTT3=
EXTT4=
EXTT5=
EXTT6=
EXTT7=
EXTT8=
EXTT9=
EXTT10=
EXTT11=
EXTT12=
EXTT13=
EXTT14=
PLAYORDER=
